<svg width="195" height="72" viewBox="0 0 195 72" fill="none" xmlns="http://www.w3.org/2000/svg">
<path d="M34.0392 68.5C26.4154 68.5 20.0721 67.2379 15.0094 64.7136C9.94671 62.1292 6.16458 58.5231 3.66301 53.8953C1.221 49.2675 0 43.8583 0 37.6678C0 30.8162 1.39969 24.8361 4.19906 19.7275C6.99843 14.5587 11.0188 10.5619 16.2602 7.73717C21.5611 4.91239 27.9342 3.5 35.3793 3.5C42.348 3.5 47.6787 4.91239 51.3715 7.73717C55.1238 10.5018 57 14.3183 57 19.1865C57 22.7325 56.0172 25.5573 54.0517 27.6609C52.1458 29.7043 49.3464 30.7261 45.6536 30.7261C43.6285 30.7261 41.8715 30.4556 40.3824 29.9147C38.8934 29.3738 37.4044 28.8629 35.9154 28.3821C34.4263 27.8412 32.6991 27.5707 30.7335 27.5707C29.0658 27.5707 27.4875 27.8412 25.9984 28.3821C24.569 28.8629 23.4075 29.7344 22.5141 30.9965C21.6803 32.1986 21.2633 33.8814 21.2633 36.0451C21.2633 38.8699 22.0972 40.8833 23.7649 42.0853C25.4922 43.2873 27.7555 43.8884 30.5549 43.8884C31.9843 43.8884 33.5925 43.7982 35.3793 43.6179C37.1661 43.3775 38.9232 43.1671 40.6505 42.9868C42.4373 42.8065 43.9561 42.7164 45.2069 42.7164C48.3636 42.7164 50.8652 43.6179 52.7116 45.4209C54.6176 47.1639 55.5705 49.8084 55.5705 53.3544C55.5705 57.9822 53.8135 61.6785 50.2994 64.4431C46.8448 67.1477 41.4248 68.5 34.0392 68.5Z" fill="white"/>
<path fill-rule="evenodd" clip-rule="evenodd" d="M87.4888 24.2421C83.2137 22.4689 79.91 24.9446 76.2304 24.7805L76.0536 26.4833C75.8139 29.2994 75.5743 32.0256 75.3346 34.6619C75.0949 37.2384 74.9751 39.3654 74.9751 41.0431C74.9751 44.5183 75.5443 47.0348 76.6827 48.5927C77.8212 50.0906 79.409 50.8396 81.4461 50.8396C83.6631 50.8396 85.2808 50.0606 86.2994 48.5028C87.3779 46.885 87.9172 44.3985 87.9172 41.0431C87.9172 39.4853 87.8872 37.6878 87.8273 35.6506C87.7674 33.6134 87.7075 31.5463 87.6475 29.4492C87.5946 27.5966 91.7638 26.0153 87.4888 24.2421Z" fill="#4F3535"/>
<path d="M123.254 2.31312C131.134 2.99619 136.758 5.40833 140.128 9.54952C143.563 13.6362 145.011 18.7836 144.473 24.9917C144.075 29.588 142.773 33.5047 140.568 36.7416C138.422 39.9837 135.657 42.3903 132.274 43.9613C128.949 45.5375 125.258 46.1497 121.199 45.7978C119.766 45.6736 118.254 45.4223 116.663 45.0438C115.077 44.6056 113.445 44.013 111.765 43.266L114.579 40.984C115.133 42.2348 115.573 43.7464 115.9 45.5189C116.233 47.2317 116.438 49.0237 116.517 50.8949C116.655 52.7713 116.657 54.4855 116.522 56.0375C116.139 60.4548 114.919 63.7771 112.861 66.0044C110.804 68.2317 107.925 69.1849 104.224 68.8641C100.702 68.5588 98.0388 67.3656 96.2345 65.2847C94.4303 63.2038 93.329 59.9508 92.9307 55.526C92.5377 51.0414 92.6594 45.128 93.2959 37.7857C93.8392 31.518 94.8072 26.2493 96.1997 21.9796C97.6519 17.7152 99.2432 14.2747 100.974 11.6582C103.114 8.4758 106.033 6.02247 109.731 4.29822C113.434 2.51427 117.942 1.85257 123.254 2.31312ZM119.705 34.933C122.63 35.1866 125.138 34.3515 127.229 32.4279C129.38 30.5094 130.611 27.7593 130.921 24.1777C131.139 21.6706 130.783 19.5348 129.853 17.7702C128.983 16.0109 127.265 15.0199 124.698 14.7974C122.609 14.6163 120.739 15.0255 119.089 16.0252C117.498 17.03 116.205 18.4214 115.208 20.1994C114.277 21.9229 113.721 23.8293 113.54 25.9186C113.333 28.3063 113.727 30.3552 114.721 32.0652C115.775 33.7804 117.436 34.7364 119.705 34.933Z" fill="white"/>
<path d="M76.2304 24.7805C76.4602 22.5586 76.6709 20.4899 76.8625 18.5743C77.1022 16.1177 77.222 14.2602 77.222 13.002C77.222 9.94621 76.5629 7.63942 75.2447 6.08158C73.9865 4.52373 72.189 3.74481 69.8522 3.74481C66.6167 3.74481 64.1601 4.73344 62.4824 6.7107C60.8646 8.62805 59.7262 11.2644 59.0671 14.6197C58.6477 16.8367 58.2882 19.6228 57.9886 22.9782C57.689 26.2736 57.4494 29.7188 57.2696 33.3139C57.0899 36.9089 57 40.2642 57 43.3799C57 52.1278 59.1271 58.8385 63.3812 63.512C67.6952 68.1855 73.7468 70.5223 81.536 70.5223C90.1041 70.5223 96.725 67.9758 101.399 62.8829C106.132 57.73 108.499 50.3003 108.499 40.5938C108.499 36.7591 108.319 32.9843 107.959 29.2695C107.6 25.5546 107.091 22.1393 106.432 19.0237C105.772 15.5485 104.724 12.9421 103.286 11.2045C101.908 9.46688 99.601 8.59808 96.3655 8.59808C90.3738 8.59808 87.3779 12.1032 87.3779 19.1135C87.3779 20.2519 87.4079 21.7499 87.4678 23.6073L87.4888 24.2421C87.5417 25.8609 87.5946 27.5966 87.6475 29.4492C87.7075 31.5463 87.7674 33.6134 87.8273 35.6506C87.8872 37.6878 87.9172 39.4853 87.9172 41.0431C87.9172 44.3985 87.3779 46.8851 86.2994 48.5028C85.2808 50.0607 83.6631 50.8396 81.4461 50.8396C79.409 50.8396 77.8212 50.0906 76.6827 48.5927C75.5443 47.0348 74.9751 44.5183 74.9751 41.0431C74.9751 39.3655 75.0949 37.2384 75.3346 34.662C75.5743 32.0256 75.8139 29.2994 76.0536 26.4833L76.2304 24.7805Z" fill="white"/>
<path d="M166.307 69C163.668 69 161.03 68.7916 158.392 68.3748C155.753 67.8985 153.354 67.1543 151.196 66.1421C149.037 65.0704 147.298 63.6414 145.979 61.8552C144.66 60.069 144 57.8363 144 55.157C144 52.0014 144.81 49.6793 146.429 48.1908C148.048 46.6428 150.656 45.8687 154.254 45.8687C156.353 45.8687 158.631 46.0474 161.09 46.4046C163.548 46.7618 165.527 46.9405 167.026 46.9405C168.406 46.9405 169.425 46.7321 170.085 46.3153C170.804 45.839 171.164 45.2733 171.164 44.6184C171.164 43.9635 170.894 43.4574 170.354 43.1001C169.815 42.7429 168.975 42.4154 167.836 42.1177C166.697 41.82 165.168 41.4926 163.249 41.1353C159.051 40.3613 155.663 39.3193 153.085 38.0095C150.506 36.6401 148.617 34.9134 147.418 32.8295C146.279 30.6861 145.709 28.0961 145.709 25.0595C145.709 21.7253 146.369 18.8376 147.688 16.3965C149.007 13.8958 150.746 11.8119 152.905 10.1448C155.123 8.41813 157.582 7.04872 160.28 6.03654C162.979 4.96482 165.737 4.1908 168.556 3.71448C171.374 3.23816 174.042 3 176.561 3C182.198 3 186.665 4.01218 189.963 6.03654C193.321 8.00136 195 10.9486 195 14.8782C195 17.9743 194.011 20.5047 192.032 22.4696C190.053 24.3748 186.995 25.3275 182.857 25.3275C181.478 25.3275 179.889 25.2679 178.09 25.1489C176.291 25.0298 174.582 24.9107 172.963 24.7916C171.344 24.613 170.055 24.5237 169.095 24.5237C167.656 24.5237 166.577 24.7023 165.857 25.0595C165.198 25.3572 164.868 25.8336 164.868 26.4885C164.868 26.9648 165.078 27.4411 165.497 27.9175C165.917 28.3342 166.667 28.751 167.746 29.1678C168.885 29.5846 170.474 30.0311 172.513 30.5074C177.61 31.6982 181.658 33.1867 184.656 34.9729C187.654 36.6996 189.783 38.724 191.042 41.046C192.362 43.3681 193.021 46.0176 193.021 48.9946C193.021 52.9838 191.882 56.4966 189.603 59.5332C187.384 62.5101 184.266 64.8322 180.249 66.4993C176.231 68.1664 171.584 69 166.307 69Z" fill="white"/>
</svg>
